<mxfile host="Electron" modified="2024-09-15T20:07:45.868Z" agent="Mozilla/5.0 (Windows NT 10.0; Win64; x64) AppleWebKit/537.36 (KHTML, like Gecko) draw.io/21.6.8 Chrome/114.0.5735.289 Electron/25.5.0 Safari/537.36" etag="LkWupws0vMzJgZZqyD_L" version="21.6.8" type="device">
  <diagram name="Страница — 1" id="2Gf5YzxVevOLfN3dfGT1">
    <mxGraphModel dx="2093" dy="1235" grid="1" gridSize="10" guides="1" tooltips="1" connect="1" arrows="1" fold="1" page="1" pageScale="1" pageWidth="827" pageHeight="1169" math="0" shadow="0">
      <root>
        <mxCell id="0" />
        <mxCell id="1" parent="0" />
        <mxCell id="xNCUxzRzSxBadR03PHfi-7" value="Агроном" style="rounded=0;whiteSpace=wrap;html=1;" vertex="1" parent="1">
          <mxGeometry x="-160" y="451" width="90" height="30" as="geometry" />
        </mxCell>
        <mxCell id="xNCUxzRzSxBadR03PHfi-10" value="&lt;u&gt;&lt;b&gt;ID&lt;/b&gt;&lt;/u&gt;" style="ellipse;whiteSpace=wrap;html=1;" vertex="1" parent="1">
          <mxGeometry x="-240" y="409" width="70" height="25" as="geometry" />
        </mxCell>
        <mxCell id="xNCUxzRzSxBadR03PHfi-11" value="" style="endArrow=none;html=1;rounded=0;exitX=0.5;exitY=1;exitDx=0;exitDy=0;entryX=0.5;entryY=0;entryDx=0;entryDy=0;" edge="1" parent="1" source="xNCUxzRzSxBadR03PHfi-10" target="xNCUxzRzSxBadR03PHfi-7">
          <mxGeometry width="50" height="50" relative="1" as="geometry">
            <mxPoint x="200" y="471" as="sourcePoint" />
            <mxPoint x="250" y="421" as="targetPoint" />
          </mxGeometry>
        </mxCell>
        <mxCell id="xNCUxzRzSxBadR03PHfi-12" value="Поставщик" style="rounded=0;whiteSpace=wrap;html=1;" vertex="1" parent="1">
          <mxGeometry x="-210" y="625.66" width="90" height="30" as="geometry" />
        </mxCell>
        <mxCell id="xNCUxzRzSxBadR03PHfi-13" value="Работник" style="rounded=0;whiteSpace=wrap;html=1;" vertex="1" parent="1">
          <mxGeometry x="328" y="593.5" width="90" height="30" as="geometry" />
        </mxCell>
        <mxCell id="xNCUxzRzSxBadR03PHfi-14" value="Данные для оплаты" style="ellipse;whiteSpace=wrap;html=1;" vertex="1" parent="1">
          <mxGeometry x="-215" y="510.99999999999994" width="100" height="40" as="geometry" />
        </mxCell>
        <mxCell id="xNCUxzRzSxBadR03PHfi-15" value="&lt;u&gt;&lt;b&gt;ID&lt;/b&gt;&lt;/u&gt;" style="ellipse;whiteSpace=wrap;html=1;" vertex="1" parent="1">
          <mxGeometry x="-250" y="572" width="70" height="25" as="geometry" />
        </mxCell>
        <mxCell id="xNCUxzRzSxBadR03PHfi-16" value="" style="endArrow=none;html=1;rounded=0;exitX=0.5;exitY=1;exitDx=0;exitDy=0;entryX=0.5;entryY=0;entryDx=0;entryDy=0;" edge="1" parent="1" source="xNCUxzRzSxBadR03PHfi-15" target="xNCUxzRzSxBadR03PHfi-12">
          <mxGeometry width="50" height="50" relative="1" as="geometry">
            <mxPoint x="-260" y="610.66" as="sourcePoint" />
            <mxPoint x="-240" y="625.66" as="targetPoint" />
          </mxGeometry>
        </mxCell>
        <mxCell id="xNCUxzRzSxBadR03PHfi-18" value="" style="endArrow=none;html=1;rounded=0;exitX=0.5;exitY=0;exitDx=0;exitDy=0;entryX=0.5;entryY=1;entryDx=0;entryDy=0;" edge="1" parent="1" source="xNCUxzRzSxBadR03PHfi-12" target="xNCUxzRzSxBadR03PHfi-14">
          <mxGeometry width="50" height="50" relative="1" as="geometry">
            <mxPoint x="-100" y="605.66" as="sourcePoint" />
            <mxPoint x="-50" y="555.66" as="targetPoint" />
          </mxGeometry>
        </mxCell>
        <mxCell id="xNCUxzRzSxBadR03PHfi-20" value="E-mail" style="ellipse;whiteSpace=wrap;html=1;" vertex="1" parent="1">
          <mxGeometry x="-147" y="575.66" width="100" height="30" as="geometry" />
        </mxCell>
        <mxCell id="xNCUxzRzSxBadR03PHfi-21" value="" style="endArrow=none;html=1;rounded=0;exitX=0.5;exitY=0;exitDx=0;exitDy=0;entryX=0.5;entryY=1;entryDx=0;entryDy=0;" edge="1" parent="1" source="xNCUxzRzSxBadR03PHfi-12" target="xNCUxzRzSxBadR03PHfi-20">
          <mxGeometry width="50" height="50" relative="1" as="geometry">
            <mxPoint x="-130" y="725.66" as="sourcePoint" />
            <mxPoint x="-80" y="675.66" as="targetPoint" />
          </mxGeometry>
        </mxCell>
        <mxCell id="xNCUxzRzSxBadR03PHfi-23" value="&lt;u&gt;&lt;b&gt;ID&lt;/b&gt;&lt;/u&gt;" style="ellipse;whiteSpace=wrap;html=1;" vertex="1" parent="1">
          <mxGeometry x="245.5" y="560" width="70" height="25" as="geometry" />
        </mxCell>
        <mxCell id="xNCUxzRzSxBadR03PHfi-24" value="ЗП" style="ellipse;whiteSpace=wrap;html=1;" vertex="1" parent="1">
          <mxGeometry x="350" y="430" width="100" height="30" as="geometry" />
        </mxCell>
        <mxCell id="xNCUxzRzSxBadR03PHfi-25" value="Дожность" style="ellipse;whiteSpace=wrap;html=1;" vertex="1" parent="1">
          <mxGeometry x="285" y="473" width="100" height="30" as="geometry" />
        </mxCell>
        <mxCell id="xNCUxzRzSxBadR03PHfi-26" value="Дни работы" style="ellipse;whiteSpace=wrap;html=1;" vertex="1" parent="1">
          <mxGeometry x="414" y="481" width="100" height="30" as="geometry" />
        </mxCell>
        <mxCell id="xNCUxzRzSxBadR03PHfi-27" value="График работы" style="ellipse;whiteSpace=wrap;html=1;" vertex="1" parent="1">
          <mxGeometry x="428" y="542" width="123" height="36" as="geometry" />
        </mxCell>
        <mxCell id="xNCUxzRzSxBadR03PHfi-28" value="" style="endArrow=none;html=1;rounded=0;exitX=0.5;exitY=0;exitDx=0;exitDy=0;entryX=0.5;entryY=1;entryDx=0;entryDy=0;" edge="1" parent="1" source="xNCUxzRzSxBadR03PHfi-13" target="xNCUxzRzSxBadR03PHfi-23">
          <mxGeometry width="50" height="50" relative="1" as="geometry">
            <mxPoint x="378" y="573.5" as="sourcePoint" />
            <mxPoint x="428" y="523.5" as="targetPoint" />
          </mxGeometry>
        </mxCell>
        <mxCell id="xNCUxzRzSxBadR03PHfi-29" value="" style="endArrow=none;html=1;rounded=0;exitX=0.5;exitY=0;exitDx=0;exitDy=0;entryX=0.5;entryY=1;entryDx=0;entryDy=0;" edge="1" parent="1" source="xNCUxzRzSxBadR03PHfi-13" target="xNCUxzRzSxBadR03PHfi-25">
          <mxGeometry width="50" height="50" relative="1" as="geometry">
            <mxPoint x="498" y="198.5" as="sourcePoint" />
            <mxPoint x="548" y="148.5" as="targetPoint" />
          </mxGeometry>
        </mxCell>
        <mxCell id="xNCUxzRzSxBadR03PHfi-30" value="" style="endArrow=none;html=1;rounded=0;exitX=0.5;exitY=0;exitDx=0;exitDy=0;entryX=0.5;entryY=1;entryDx=0;entryDy=0;" edge="1" parent="1" source="xNCUxzRzSxBadR03PHfi-13" target="xNCUxzRzSxBadR03PHfi-24">
          <mxGeometry width="50" height="50" relative="1" as="geometry">
            <mxPoint x="508" y="208.5" as="sourcePoint" />
            <mxPoint x="558" y="158.5" as="targetPoint" />
          </mxGeometry>
        </mxCell>
        <mxCell id="xNCUxzRzSxBadR03PHfi-31" value="" style="endArrow=none;html=1;rounded=0;exitX=0.5;exitY=0;exitDx=0;exitDy=0;entryX=0.5;entryY=1;entryDx=0;entryDy=0;" edge="1" parent="1" source="xNCUxzRzSxBadR03PHfi-13" target="xNCUxzRzSxBadR03PHfi-26">
          <mxGeometry width="50" height="50" relative="1" as="geometry">
            <mxPoint x="518" y="218.5" as="sourcePoint" />
            <mxPoint x="568" y="168.5" as="targetPoint" />
          </mxGeometry>
        </mxCell>
        <mxCell id="xNCUxzRzSxBadR03PHfi-32" value="" style="endArrow=none;html=1;rounded=0;exitX=0.5;exitY=0;exitDx=0;exitDy=0;entryX=0.5;entryY=1;entryDx=0;entryDy=0;" edge="1" parent="1" source="xNCUxzRzSxBadR03PHfi-13" target="xNCUxzRzSxBadR03PHfi-27">
          <mxGeometry width="50" height="50" relative="1" as="geometry">
            <mxPoint x="528" y="228.5" as="sourcePoint" />
            <mxPoint x="578" y="178.5" as="targetPoint" />
          </mxGeometry>
        </mxCell>
        <mxCell id="xNCUxzRzSxBadR03PHfi-33" value="ЗП" style="ellipse;whiteSpace=wrap;html=1;" vertex="1" parent="1">
          <mxGeometry x="-210" y="361" width="100" height="30" as="geometry" />
        </mxCell>
        <mxCell id="xNCUxzRzSxBadR03PHfi-34" value="" style="endArrow=none;html=1;rounded=0;exitX=0.5;exitY=0;exitDx=0;exitDy=0;entryX=0.5;entryY=1;entryDx=0;entryDy=0;" edge="1" parent="1" source="xNCUxzRzSxBadR03PHfi-7" target="xNCUxzRzSxBadR03PHfi-33">
          <mxGeometry width="50" height="50" relative="1" as="geometry">
            <mxPoint x="40" y="236" as="sourcePoint" />
            <mxPoint x="90" y="186" as="targetPoint" />
          </mxGeometry>
        </mxCell>
        <mxCell id="xNCUxzRzSxBadR03PHfi-35" value="Дни работы" style="ellipse;whiteSpace=wrap;html=1;" vertex="1" parent="1">
          <mxGeometry x="-130" y="331" width="100" height="30" as="geometry" />
        </mxCell>
        <mxCell id="xNCUxzRzSxBadR03PHfi-36" value="График работы" style="ellipse;whiteSpace=wrap;html=1;" vertex="1" parent="1">
          <mxGeometry x="-83" y="373" width="123" height="36" as="geometry" />
        </mxCell>
        <mxCell id="xNCUxzRzSxBadR03PHfi-38" value="" style="endArrow=none;html=1;rounded=0;exitX=0.5;exitY=0;exitDx=0;exitDy=0;entryX=0.5;entryY=1;entryDx=0;entryDy=0;" edge="1" parent="1" source="xNCUxzRzSxBadR03PHfi-7" target="xNCUxzRzSxBadR03PHfi-35">
          <mxGeometry width="50" height="50" relative="1" as="geometry">
            <mxPoint x="40" y="236" as="sourcePoint" />
            <mxPoint x="90" y="186" as="targetPoint" />
          </mxGeometry>
        </mxCell>
        <mxCell id="xNCUxzRzSxBadR03PHfi-39" value="" style="endArrow=none;html=1;rounded=0;exitX=0.5;exitY=0;exitDx=0;exitDy=0;entryX=0.5;entryY=1;entryDx=0;entryDy=0;" edge="1" parent="1" source="xNCUxzRzSxBadR03PHfi-7" target="xNCUxzRzSxBadR03PHfi-36">
          <mxGeometry width="50" height="50" relative="1" as="geometry">
            <mxPoint x="50" y="246" as="sourcePoint" />
            <mxPoint y="466" as="targetPoint" />
          </mxGeometry>
        </mxCell>
        <mxCell id="xNCUxzRzSxBadR03PHfi-40" value="Заказ" style="rounded=0;whiteSpace=wrap;html=1;" vertex="1" parent="1">
          <mxGeometry x="10" y="617" width="90" height="30" as="geometry" />
        </mxCell>
        <mxCell id="xNCUxzRzSxBadR03PHfi-41" value="&lt;u&gt;&lt;b&gt;ID&lt;/b&gt;&lt;/u&gt;" style="ellipse;whiteSpace=wrap;html=1;" vertex="1" parent="1">
          <mxGeometry x="-20" y="564.5" width="70" height="25" as="geometry" />
        </mxCell>
        <mxCell id="xNCUxzRzSxBadR03PHfi-42" value="Срок" style="ellipse;whiteSpace=wrap;html=1;" vertex="1" parent="1">
          <mxGeometry x="30" y="523.5" width="100" height="30" as="geometry" />
        </mxCell>
        <mxCell id="xNCUxzRzSxBadR03PHfi-44" value="Содержит" style="rhombus;whiteSpace=wrap;html=1;" vertex="1" parent="1">
          <mxGeometry x="-90" y="655.66" width="70" height="65" as="geometry" />
        </mxCell>
        <mxCell id="xNCUxzRzSxBadR03PHfi-46" value="" style="endArrow=none;html=1;rounded=0;exitX=1;exitY=0.5;exitDx=0;exitDy=0;entryX=0;entryY=0.5;entryDx=0;entryDy=0;" edge="1" parent="1" source="xNCUxzRzSxBadR03PHfi-12" target="xNCUxzRzSxBadR03PHfi-44">
          <mxGeometry width="50" height="50" relative="1" as="geometry">
            <mxPoint x="-90" y="769.66" as="sourcePoint" />
            <mxPoint x="-40" y="719.66" as="targetPoint" />
          </mxGeometry>
        </mxCell>
        <mxCell id="xNCUxzRzSxBadR03PHfi-47" value="1" style="edgeLabel;html=1;align=center;verticalAlign=middle;resizable=0;points=[];" vertex="1" connectable="0" parent="xNCUxzRzSxBadR03PHfi-46">
          <mxGeometry x="0.1586" y="-2" relative="1" as="geometry">
            <mxPoint as="offset" />
          </mxGeometry>
        </mxCell>
        <mxCell id="xNCUxzRzSxBadR03PHfi-50" value="Содержит" style="rhombus;whiteSpace=wrap;html=1;" vertex="1" parent="1">
          <mxGeometry x="160" y="582" width="70" height="65" as="geometry" />
        </mxCell>
        <mxCell id="xNCUxzRzSxBadR03PHfi-52" value="" style="endArrow=none;html=1;rounded=0;exitX=1;exitY=0.5;exitDx=0;exitDy=0;entryX=0;entryY=0.5;entryDx=0;entryDy=0;" edge="1" parent="1" source="xNCUxzRzSxBadR03PHfi-50" target="xNCUxzRzSxBadR03PHfi-13">
          <mxGeometry width="50" height="50" relative="1" as="geometry">
            <mxPoint x="293" y="681" as="sourcePoint" />
            <mxPoint x="360" y="667" as="targetPoint" />
          </mxGeometry>
        </mxCell>
        <mxCell id="xNCUxzRzSxBadR03PHfi-55" value="1" style="edgeLabel;html=1;align=center;verticalAlign=middle;resizable=0;points=[];" vertex="1" connectable="0" parent="xNCUxzRzSxBadR03PHfi-52">
          <mxGeometry x="-0.0922" y="1" relative="1" as="geometry">
            <mxPoint as="offset" />
          </mxGeometry>
        </mxCell>
        <mxCell id="xNCUxzRzSxBadR03PHfi-56" value="" style="endArrow=none;html=1;rounded=0;exitX=0.5;exitY=0;exitDx=0;exitDy=0;entryX=0.5;entryY=1;entryDx=0;entryDy=0;" edge="1" parent="1" source="xNCUxzRzSxBadR03PHfi-40" target="xNCUxzRzSxBadR03PHfi-41">
          <mxGeometry width="50" height="50" relative="1" as="geometry">
            <mxPoint x="95" y="581.5" as="sourcePoint" />
            <mxPoint x="145" y="531.5" as="targetPoint" />
          </mxGeometry>
        </mxCell>
        <mxCell id="xNCUxzRzSxBadR03PHfi-57" value="Растение" style="rounded=0;whiteSpace=wrap;html=1;" vertex="1" parent="1">
          <mxGeometry x="223.5" y="778.66" width="90" height="30" as="geometry" />
        </mxCell>
        <mxCell id="xNCUxzRzSxBadR03PHfi-58" value="&lt;u&gt;&lt;b&gt;ID&lt;/b&gt;&lt;/u&gt;" style="ellipse;whiteSpace=wrap;html=1;" vertex="1" parent="1">
          <mxGeometry x="153.5" y="733.66" width="70" height="25" as="geometry" />
        </mxCell>
        <mxCell id="xNCUxzRzSxBadR03PHfi-59" value="" style="endArrow=none;html=1;rounded=0;exitX=0.5;exitY=0;exitDx=0;exitDy=0;entryX=0.5;entryY=1;entryDx=0;entryDy=0;" edge="1" parent="1" source="xNCUxzRzSxBadR03PHfi-40" target="xNCUxzRzSxBadR03PHfi-42">
          <mxGeometry width="50" height="50" relative="1" as="geometry">
            <mxPoint x="258" y="362.5" as="sourcePoint" />
            <mxPoint x="308" y="312.5" as="targetPoint" />
          </mxGeometry>
        </mxCell>
        <mxCell id="xNCUxzRzSxBadR03PHfi-60" value="Название" style="ellipse;whiteSpace=wrap;html=1;" vertex="1" parent="1">
          <mxGeometry x="243.5" y="648.66" width="100" height="30" as="geometry" />
        </mxCell>
        <mxCell id="xNCUxzRzSxBadR03PHfi-61" value="Условия роста" style="ellipse;whiteSpace=wrap;html=1;" vertex="1" parent="1">
          <mxGeometry x="143.5" y="683.66" width="120" height="30" as="geometry" />
        </mxCell>
        <mxCell id="xNCUxzRzSxBadR03PHfi-62" value="Необх. пит. в-ва" style="ellipse;whiteSpace=wrap;html=1;" vertex="1" parent="1">
          <mxGeometry x="301.5" y="683.66" width="120" height="30" as="geometry" />
        </mxCell>
        <mxCell id="xNCUxzRzSxBadR03PHfi-63" value="" style="endArrow=none;html=1;rounded=0;entryX=0.5;entryY=1;entryDx=0;entryDy=0;" edge="1" parent="1" source="xNCUxzRzSxBadR03PHfi-57" target="xNCUxzRzSxBadR03PHfi-58">
          <mxGeometry width="50" height="50" relative="1" as="geometry">
            <mxPoint x="198.5" y="858.66" as="sourcePoint" />
            <mxPoint x="193.5" y="808.66" as="targetPoint" />
          </mxGeometry>
        </mxCell>
        <mxCell id="xNCUxzRzSxBadR03PHfi-64" value="" style="endArrow=none;html=1;rounded=0;exitX=0.5;exitY=0;exitDx=0;exitDy=0;entryX=0.5;entryY=1;entryDx=0;entryDy=0;" edge="1" parent="1" source="xNCUxzRzSxBadR03PHfi-57" target="xNCUxzRzSxBadR03PHfi-61">
          <mxGeometry width="50" height="50" relative="1" as="geometry">
            <mxPoint x="213.5" y="838.66" as="sourcePoint" />
            <mxPoint x="133.5" y="818.66" as="targetPoint" />
          </mxGeometry>
        </mxCell>
        <mxCell id="xNCUxzRzSxBadR03PHfi-65" value="" style="endArrow=none;html=1;rounded=0;exitX=0.5;exitY=0;exitDx=0;exitDy=0;entryX=0.5;entryY=1;entryDx=0;entryDy=0;" edge="1" parent="1" source="xNCUxzRzSxBadR03PHfi-57" target="xNCUxzRzSxBadR03PHfi-60">
          <mxGeometry width="50" height="50" relative="1" as="geometry">
            <mxPoint x="288.5" y="798.66" as="sourcePoint" />
            <mxPoint x="208.5" y="778.66" as="targetPoint" />
          </mxGeometry>
        </mxCell>
        <mxCell id="xNCUxzRzSxBadR03PHfi-66" value="" style="endArrow=none;html=1;rounded=0;exitX=0.5;exitY=1;exitDx=0;exitDy=0;entryX=0.5;entryY=0;entryDx=0;entryDy=0;" edge="1" parent="1" source="xNCUxzRzSxBadR03PHfi-62" target="xNCUxzRzSxBadR03PHfi-57">
          <mxGeometry width="50" height="50" relative="1" as="geometry">
            <mxPoint x="298.5" y="808.66" as="sourcePoint" />
            <mxPoint x="218.5" y="788.66" as="targetPoint" />
          </mxGeometry>
        </mxCell>
        <mxCell id="xNCUxzRzSxBadR03PHfi-67" value="Удобрение" style="rounded=0;whiteSpace=wrap;html=1;" vertex="1" parent="1">
          <mxGeometry x="430" y="858.66" width="90" height="30" as="geometry" />
        </mxCell>
        <mxCell id="xNCUxzRzSxBadR03PHfi-68" value="&lt;u&gt;&lt;b&gt;ID&lt;/b&gt;&lt;/u&gt;" style="ellipse;whiteSpace=wrap;html=1;" vertex="1" parent="1">
          <mxGeometry x="385" y="798.66" width="70" height="25" as="geometry" />
        </mxCell>
        <mxCell id="xNCUxzRzSxBadR03PHfi-69" value="" style="endArrow=none;html=1;rounded=0;exitX=0.5;exitY=0;exitDx=0;exitDy=0;entryX=0.5;entryY=1;entryDx=0;entryDy=0;" edge="1" parent="1" source="xNCUxzRzSxBadR03PHfi-67" target="xNCUxzRzSxBadR03PHfi-68">
          <mxGeometry width="50" height="50" relative="1" as="geometry">
            <mxPoint x="320" y="678.66" as="sourcePoint" />
            <mxPoint x="240" y="658.66" as="targetPoint" />
          </mxGeometry>
        </mxCell>
        <mxCell id="xNCUxzRzSxBadR03PHfi-70" value="Состав" style="ellipse;whiteSpace=wrap;html=1;" vertex="1" parent="1">
          <mxGeometry x="428" y="758.66" width="100" height="30" as="geometry" />
        </mxCell>
        <mxCell id="xNCUxzRzSxBadR03PHfi-71" value="" style="endArrow=none;html=1;rounded=0;exitX=0.5;exitY=1;exitDx=0;exitDy=0;entryX=0.5;entryY=0;entryDx=0;entryDy=0;" edge="1" parent="1" source="xNCUxzRzSxBadR03PHfi-70" target="xNCUxzRzSxBadR03PHfi-67">
          <mxGeometry width="50" height="50" relative="1" as="geometry">
            <mxPoint x="320" y="678.66" as="sourcePoint" />
            <mxPoint x="240" y="658.66" as="targetPoint" />
          </mxGeometry>
        </mxCell>
        <mxCell id="xNCUxzRzSxBadR03PHfi-72" value="Содержит" style="rhombus;whiteSpace=wrap;html=1;" vertex="1" parent="1">
          <mxGeometry x="300" y="841.16" width="70" height="65" as="geometry" />
        </mxCell>
        <mxCell id="xNCUxzRzSxBadR03PHfi-73" value="" style="endArrow=none;html=1;rounded=0;exitX=1;exitY=0.5;exitDx=0;exitDy=0;entryX=0;entryY=0.5;entryDx=0;entryDy=0;" edge="1" parent="1" source="xNCUxzRzSxBadR03PHfi-72" target="xNCUxzRzSxBadR03PHfi-67">
          <mxGeometry width="50" height="50" relative="1" as="geometry">
            <mxPoint x="305" y="823.66" as="sourcePoint" />
            <mxPoint x="300" y="773.66" as="targetPoint" />
          </mxGeometry>
        </mxCell>
        <mxCell id="xNCUxzRzSxBadR03PHfi-76" value="1" style="edgeLabel;html=1;align=center;verticalAlign=middle;resizable=0;points=[];" vertex="1" connectable="0" parent="xNCUxzRzSxBadR03PHfi-73">
          <mxGeometry x="0.092" y="-2" relative="1" as="geometry">
            <mxPoint as="offset" />
          </mxGeometry>
        </mxCell>
        <mxCell id="xNCUxzRzSxBadR03PHfi-77" value="" style="endArrow=classic;html=1;rounded=0;entryX=0.5;entryY=1;entryDx=0;entryDy=0;exitX=0;exitY=0.5;exitDx=0;exitDy=0;" edge="1" parent="1" source="xNCUxzRzSxBadR03PHfi-72" target="xNCUxzRzSxBadR03PHfi-57">
          <mxGeometry width="50" height="50" relative="1" as="geometry">
            <mxPoint x="-150" y="940" as="sourcePoint" />
            <mxPoint x="-100" y="890" as="targetPoint" />
          </mxGeometry>
        </mxCell>
        <mxCell id="xNCUxzRzSxBadR03PHfi-78" value="m" style="edgeLabel;html=1;align=center;verticalAlign=middle;resizable=0;points=[];" vertex="1" connectable="0" parent="xNCUxzRzSxBadR03PHfi-77">
          <mxGeometry x="0.021" relative="1" as="geometry">
            <mxPoint as="offset" />
          </mxGeometry>
        </mxCell>
        <mxCell id="xNCUxzRzSxBadR03PHfi-79" value="" style="endArrow=classic;html=1;rounded=0;exitX=1;exitY=0.5;exitDx=0;exitDy=0;entryX=0;entryY=0.5;entryDx=0;entryDy=0;" edge="1" parent="1" source="xNCUxzRzSxBadR03PHfi-44" target="xNCUxzRzSxBadR03PHfi-40">
          <mxGeometry width="50" height="50" relative="1" as="geometry">
            <mxPoint x="-30" y="660" as="sourcePoint" />
            <mxPoint x="20" y="610" as="targetPoint" />
          </mxGeometry>
        </mxCell>
        <mxCell id="xNCUxzRzSxBadR03PHfi-80" value="m" style="edgeLabel;html=1;align=center;verticalAlign=middle;resizable=0;points=[];" vertex="1" connectable="0" parent="xNCUxzRzSxBadR03PHfi-79">
          <mxGeometry x="-0.0292" relative="1" as="geometry">
            <mxPoint as="offset" />
          </mxGeometry>
        </mxCell>
        <mxCell id="xNCUxzRzSxBadR03PHfi-81" value="" style="endArrow=classic;html=1;rounded=0;exitX=0;exitY=0.5;exitDx=0;exitDy=0;entryX=1;entryY=0.5;entryDx=0;entryDy=0;" edge="1" parent="1" source="xNCUxzRzSxBadR03PHfi-50" target="xNCUxzRzSxBadR03PHfi-40">
          <mxGeometry width="50" height="50" relative="1" as="geometry">
            <mxPoint x="250" y="670" as="sourcePoint" />
            <mxPoint x="300" y="620" as="targetPoint" />
          </mxGeometry>
        </mxCell>
        <mxCell id="xNCUxzRzSxBadR03PHfi-82" value="m" style="edgeLabel;html=1;align=center;verticalAlign=middle;resizable=0;points=[];" vertex="1" connectable="0" parent="xNCUxzRzSxBadR03PHfi-81">
          <mxGeometry x="-0.0463" y="-1" relative="1" as="geometry">
            <mxPoint as="offset" />
          </mxGeometry>
        </mxCell>
        <mxCell id="xNCUxzRzSxBadR03PHfi-84" value="Содержит" style="rhombus;whiteSpace=wrap;html=1;" vertex="1" parent="1">
          <mxGeometry x="80" y="770" width="70" height="65" as="geometry" />
        </mxCell>
        <mxCell id="xNCUxzRzSxBadR03PHfi-85" value="" style="endArrow=none;html=1;rounded=0;exitX=1;exitY=0.5;exitDx=0;exitDy=0;entryX=0;entryY=0.5;entryDx=0;entryDy=0;" edge="1" parent="1" source="xNCUxzRzSxBadR03PHfi-84" target="xNCUxzRzSxBadR03PHfi-57">
          <mxGeometry width="50" height="50" relative="1" as="geometry">
            <mxPoint x="139.50000000000023" y="771.16" as="sourcePoint" />
            <mxPoint x="174.5" y="816.16" as="targetPoint" />
          </mxGeometry>
        </mxCell>
        <mxCell id="xNCUxzRzSxBadR03PHfi-86" value="1" style="edgeLabel;html=1;align=center;verticalAlign=middle;resizable=0;points=[];" vertex="1" connectable="0" parent="xNCUxzRzSxBadR03PHfi-85">
          <mxGeometry x="0.092" y="-2" relative="1" as="geometry">
            <mxPoint as="offset" />
          </mxGeometry>
        </mxCell>
        <mxCell id="xNCUxzRzSxBadR03PHfi-87" value="" style="endArrow=classic;html=1;rounded=0;entryX=0.5;entryY=1;entryDx=0;entryDy=0;exitX=0;exitY=0.5;exitDx=0;exitDy=0;" edge="1" parent="1" source="xNCUxzRzSxBadR03PHfi-84" target="xNCUxzRzSxBadR03PHfi-40">
          <mxGeometry width="50" height="50" relative="1" as="geometry">
            <mxPoint x="-419" y="832.5" as="sourcePoint" />
            <mxPoint x="10" y="732.5" as="targetPoint" />
          </mxGeometry>
        </mxCell>
        <mxCell id="xNCUxzRzSxBadR03PHfi-88" value="m" style="edgeLabel;html=1;align=center;verticalAlign=middle;resizable=0;points=[];" vertex="1" connectable="0" parent="xNCUxzRzSxBadR03PHfi-87">
          <mxGeometry x="0.021" relative="1" as="geometry">
            <mxPoint as="offset" />
          </mxGeometry>
        </mxCell>
        <mxCell id="xNCUxzRzSxBadR03PHfi-89" value="Логин" style="ellipse;whiteSpace=wrap;html=1;" vertex="1" parent="1">
          <mxGeometry x="90" y="250" width="100" height="30" as="geometry" />
        </mxCell>
        <mxCell id="xNCUxzRzSxBadR03PHfi-90" value="Хэш пароля" style="ellipse;whiteSpace=wrap;html=1;" vertex="1" parent="1">
          <mxGeometry x="50" y="301" width="100" height="30" as="geometry" />
        </mxCell>
        <mxCell id="xNCUxzRzSxBadR03PHfi-93" value="Пользователь" style="rounded=0;whiteSpace=wrap;html=1;" vertex="1" parent="1">
          <mxGeometry x="180" y="368" width="90" height="30" as="geometry" />
        </mxCell>
        <mxCell id="xNCUxzRzSxBadR03PHfi-94" value="&lt;u&gt;&lt;b&gt;ID&lt;/b&gt;&lt;/u&gt;" style="ellipse;whiteSpace=wrap;html=1;" vertex="1" parent="1">
          <mxGeometry x="84" y="343" width="70" height="25" as="geometry" />
        </mxCell>
        <mxCell id="xNCUxzRzSxBadR03PHfi-95" value="Роль" style="ellipse;whiteSpace=wrap;html=1;" vertex="1" parent="1">
          <mxGeometry x="184.5" y="270" width="100" height="30" as="geometry" />
        </mxCell>
        <mxCell id="xNCUxzRzSxBadR03PHfi-97" value="" style="endArrow=none;html=1;rounded=0;exitX=0.5;exitY=0;exitDx=0;exitDy=0;entryX=1;entryY=0.5;entryDx=0;entryDy=0;" edge="1" parent="1" source="xNCUxzRzSxBadR03PHfi-93" target="xNCUxzRzSxBadR03PHfi-94">
          <mxGeometry width="50" height="50" relative="1" as="geometry">
            <mxPoint x="330" y="458" as="sourcePoint" />
            <mxPoint x="380" y="408" as="targetPoint" />
          </mxGeometry>
        </mxCell>
        <mxCell id="xNCUxzRzSxBadR03PHfi-98" value="" style="endArrow=none;html=1;rounded=0;exitX=0.5;exitY=0;exitDx=0;exitDy=0;entryX=1;entryY=0.5;entryDx=0;entryDy=0;" edge="1" parent="1" source="xNCUxzRzSxBadR03PHfi-93" target="xNCUxzRzSxBadR03PHfi-90">
          <mxGeometry width="50" height="50" relative="1" as="geometry">
            <mxPoint x="340" y="468" as="sourcePoint" />
            <mxPoint x="390" y="418" as="targetPoint" />
          </mxGeometry>
        </mxCell>
        <mxCell id="xNCUxzRzSxBadR03PHfi-99" value="" style="endArrow=none;html=1;rounded=0;exitX=0.5;exitY=0;exitDx=0;exitDy=0;entryX=0.5;entryY=1;entryDx=0;entryDy=0;" edge="1" parent="1" source="xNCUxzRzSxBadR03PHfi-93" target="xNCUxzRzSxBadR03PHfi-89">
          <mxGeometry width="50" height="50" relative="1" as="geometry">
            <mxPoint x="350" y="478" as="sourcePoint" />
            <mxPoint x="400" y="428" as="targetPoint" />
          </mxGeometry>
        </mxCell>
        <mxCell id="xNCUxzRzSxBadR03PHfi-100" value="" style="endArrow=none;html=1;rounded=0;exitX=0.5;exitY=0;exitDx=0;exitDy=0;entryX=0.5;entryY=1;entryDx=0;entryDy=0;" edge="1" parent="1" source="xNCUxzRzSxBadR03PHfi-93" target="xNCUxzRzSxBadR03PHfi-95">
          <mxGeometry width="50" height="50" relative="1" as="geometry">
            <mxPoint x="360" y="488" as="sourcePoint" />
            <mxPoint x="410" y="438" as="targetPoint" />
          </mxGeometry>
        </mxCell>
        <mxCell id="xNCUxzRzSxBadR03PHfi-101" value="Содержит" style="rhombus;whiteSpace=wrap;html=1;" vertex="1" parent="1">
          <mxGeometry x="175.5" y="446" width="70" height="65" as="geometry" />
        </mxCell>
        <mxCell id="xNCUxzRzSxBadR03PHfi-102" value="Содержит" style="rhombus;whiteSpace=wrap;html=1;" vertex="1" parent="1">
          <mxGeometry x="40" y="422.5" width="70" height="65" as="geometry" />
        </mxCell>
        <mxCell id="xNCUxzRzSxBadR03PHfi-103" value="" style="endArrow=classic;html=1;rounded=0;exitX=1;exitY=0.5;exitDx=0;exitDy=0;entryX=0.5;entryY=0;entryDx=0;entryDy=0;" edge="1" parent="1" source="xNCUxzRzSxBadR03PHfi-101" target="xNCUxzRzSxBadR03PHfi-13">
          <mxGeometry width="50" height="50" relative="1" as="geometry">
            <mxPoint x="220" y="530" as="sourcePoint" />
            <mxPoint x="270" y="480" as="targetPoint" />
          </mxGeometry>
        </mxCell>
        <mxCell id="xNCUxzRzSxBadR03PHfi-104" value="1" style="edgeLabel;html=1;align=center;verticalAlign=middle;resizable=0;points=[];" vertex="1" connectable="0" parent="xNCUxzRzSxBadR03PHfi-103">
          <mxGeometry x="-0.0973" relative="1" as="geometry">
            <mxPoint as="offset" />
          </mxGeometry>
        </mxCell>
        <mxCell id="xNCUxzRzSxBadR03PHfi-105" value="" style="endArrow=classic;html=1;rounded=0;exitX=0;exitY=0.5;exitDx=0;exitDy=0;entryX=1;entryY=0.5;entryDx=0;entryDy=0;" edge="1" parent="1" source="xNCUxzRzSxBadR03PHfi-102" target="xNCUxzRzSxBadR03PHfi-7">
          <mxGeometry width="50" height="50" relative="1" as="geometry">
            <mxPoint x="180" y="490" as="sourcePoint" />
            <mxPoint x="230" y="440" as="targetPoint" />
          </mxGeometry>
        </mxCell>
        <mxCell id="xNCUxzRzSxBadR03PHfi-106" value="1" style="edgeLabel;html=1;align=center;verticalAlign=middle;resizable=0;points=[];" vertex="1" connectable="0" parent="xNCUxzRzSxBadR03PHfi-105">
          <mxGeometry x="-0.0882" y="2" relative="1" as="geometry">
            <mxPoint as="offset" />
          </mxGeometry>
        </mxCell>
        <mxCell id="xNCUxzRzSxBadR03PHfi-107" value="" style="endArrow=none;html=1;rounded=0;exitX=1;exitY=0.5;exitDx=0;exitDy=0;entryX=0.5;entryY=1;entryDx=0;entryDy=0;" edge="1" parent="1" source="xNCUxzRzSxBadR03PHfi-102" target="xNCUxzRzSxBadR03PHfi-93">
          <mxGeometry width="50" height="50" relative="1" as="geometry">
            <mxPoint x="180" y="490" as="sourcePoint" />
            <mxPoint x="230" y="440" as="targetPoint" />
          </mxGeometry>
        </mxCell>
        <mxCell id="xNCUxzRzSxBadR03PHfi-110" value="1" style="edgeLabel;html=1;align=center;verticalAlign=middle;resizable=0;points=[];" vertex="1" connectable="0" parent="xNCUxzRzSxBadR03PHfi-107">
          <mxGeometry x="-0.0919" y="-2" relative="1" as="geometry">
            <mxPoint as="offset" />
          </mxGeometry>
        </mxCell>
        <mxCell id="xNCUxzRzSxBadR03PHfi-108" value="" style="endArrow=none;html=1;rounded=0;exitX=0.5;exitY=0;exitDx=0;exitDy=0;entryX=0.5;entryY=1;entryDx=0;entryDy=0;" edge="1" parent="1" source="xNCUxzRzSxBadR03PHfi-101" target="xNCUxzRzSxBadR03PHfi-93">
          <mxGeometry width="50" height="50" relative="1" as="geometry">
            <mxPoint x="357" y="428" as="sourcePoint" />
            <mxPoint x="312" y="368" as="targetPoint" />
          </mxGeometry>
        </mxCell>
        <mxCell id="xNCUxzRzSxBadR03PHfi-109" value="1" style="edgeLabel;html=1;align=center;verticalAlign=middle;resizable=0;points=[];" vertex="1" connectable="0" parent="xNCUxzRzSxBadR03PHfi-108">
          <mxGeometry x="-0.094" y="-1" relative="1" as="geometry">
            <mxPoint as="offset" />
          </mxGeometry>
        </mxCell>
        <mxCell id="xNCUxzRzSxBadR03PHfi-111" value="Грядка" style="rounded=0;whiteSpace=wrap;html=1;" vertex="1" parent="1">
          <mxGeometry x="-160" y="870" width="90" height="30" as="geometry" />
        </mxCell>
        <mxCell id="xNCUxzRzSxBadR03PHfi-112" value="&lt;u&gt;&lt;b&gt;ID&lt;/b&gt;&lt;/u&gt;" style="ellipse;whiteSpace=wrap;html=1;" vertex="1" parent="1">
          <mxGeometry x="-210" y="827.5" width="70" height="25" as="geometry" />
        </mxCell>
        <mxCell id="xNCUxzRzSxBadR03PHfi-113" value="Содержит" style="rhombus;whiteSpace=wrap;html=1;" vertex="1" parent="1">
          <mxGeometry x="80" y="852.5" width="70" height="65" as="geometry" />
        </mxCell>
        <mxCell id="xNCUxzRzSxBadR03PHfi-114" value="" style="endArrow=none;html=1;rounded=0;exitX=1;exitY=0.5;exitDx=0;exitDy=0;entryX=0;entryY=0.5;entryDx=0;entryDy=0;" edge="1" parent="1" source="xNCUxzRzSxBadR03PHfi-113" target="xNCUxzRzSxBadR03PHfi-57">
          <mxGeometry width="50" height="50" relative="1" as="geometry">
            <mxPoint x="120" y="750" as="sourcePoint" />
            <mxPoint x="170" y="700" as="targetPoint" />
          </mxGeometry>
        </mxCell>
        <mxCell id="xNCUxzRzSxBadR03PHfi-115" value="1" style="edgeLabel;html=1;align=center;verticalAlign=middle;resizable=0;points=[];" vertex="1" connectable="0" parent="xNCUxzRzSxBadR03PHfi-114">
          <mxGeometry x="-0.1261" relative="1" as="geometry">
            <mxPoint as="offset" />
          </mxGeometry>
        </mxCell>
        <mxCell id="xNCUxzRzSxBadR03PHfi-116" value="" style="endArrow=classic;html=1;rounded=0;exitX=0;exitY=0.5;exitDx=0;exitDy=0;entryX=1;entryY=0.5;entryDx=0;entryDy=0;" edge="1" parent="1" source="xNCUxzRzSxBadR03PHfi-113" target="xNCUxzRzSxBadR03PHfi-111">
          <mxGeometry width="50" height="50" relative="1" as="geometry">
            <mxPoint x="120" y="750" as="sourcePoint" />
            <mxPoint x="10" y="820" as="targetPoint" />
          </mxGeometry>
        </mxCell>
        <mxCell id="xNCUxzRzSxBadR03PHfi-117" value="1" style="edgeLabel;html=1;align=center;verticalAlign=middle;resizable=0;points=[];" vertex="1" connectable="0" parent="xNCUxzRzSxBadR03PHfi-116">
          <mxGeometry x="-0.0626" y="-1" relative="1" as="geometry">
            <mxPoint as="offset" />
          </mxGeometry>
        </mxCell>
        <mxCell id="xNCUxzRzSxBadR03PHfi-118" value="Содержит" style="rhombus;whiteSpace=wrap;html=1;" vertex="1" parent="1">
          <mxGeometry x="-40" y="710" width="70" height="65" as="geometry" />
        </mxCell>
        <mxCell id="xNCUxzRzSxBadR03PHfi-119" value="" style="endArrow=classic;html=1;rounded=0;exitX=0.5;exitY=0;exitDx=0;exitDy=0;entryX=0.419;entryY=1.001;entryDx=0;entryDy=0;entryPerimeter=0;" edge="1" parent="1" source="xNCUxzRzSxBadR03PHfi-118" target="xNCUxzRzSxBadR03PHfi-40">
          <mxGeometry width="50" height="50" relative="1" as="geometry">
            <mxPoint x="90" y="895" as="sourcePoint" />
            <mxPoint x="20" y="840" as="targetPoint" />
          </mxGeometry>
        </mxCell>
        <mxCell id="xNCUxzRzSxBadR03PHfi-120" value="m" style="edgeLabel;html=1;align=center;verticalAlign=middle;resizable=0;points=[];" vertex="1" connectable="0" parent="xNCUxzRzSxBadR03PHfi-119">
          <mxGeometry x="-0.0626" y="-1" relative="1" as="geometry">
            <mxPoint as="offset" />
          </mxGeometry>
        </mxCell>
        <mxCell id="xNCUxzRzSxBadR03PHfi-121" value="" style="endArrow=none;html=1;rounded=0;exitX=1;exitY=0;exitDx=0;exitDy=0;entryX=0.5;entryY=1;entryDx=0;entryDy=0;" edge="1" parent="1" source="xNCUxzRzSxBadR03PHfi-111" target="xNCUxzRzSxBadR03PHfi-118">
          <mxGeometry width="50" height="50" relative="1" as="geometry">
            <mxPoint x="-70" y="852.5" as="sourcePoint" />
            <mxPoint x="-20" y="802.5" as="targetPoint" />
          </mxGeometry>
        </mxCell>
        <mxCell id="xNCUxzRzSxBadR03PHfi-122" value="1" style="edgeLabel;html=1;align=center;verticalAlign=middle;resizable=0;points=[];" vertex="1" connectable="0" parent="xNCUxzRzSxBadR03PHfi-121">
          <mxGeometry x="0.0236" y="-2" relative="1" as="geometry">
            <mxPoint as="offset" />
          </mxGeometry>
        </mxCell>
        <mxCell id="xNCUxzRzSxBadR03PHfi-123" value="" style="endArrow=none;html=1;rounded=0;exitX=0.5;exitY=1;exitDx=0;exitDy=0;entryX=0.5;entryY=0;entryDx=0;entryDy=0;" edge="1" parent="1" source="xNCUxzRzSxBadR03PHfi-112" target="xNCUxzRzSxBadR03PHfi-111">
          <mxGeometry width="50" height="50" relative="1" as="geometry">
            <mxPoint x="-170" y="730" as="sourcePoint" />
            <mxPoint x="-100" y="745" as="targetPoint" />
          </mxGeometry>
        </mxCell>
        <mxCell id="xNCUxzRzSxBadR03PHfi-124" value="Состояние" style="ellipse;whiteSpace=wrap;html=1;" vertex="1" parent="1">
          <mxGeometry x="-160" y="787.5" width="100" height="30" as="geometry" />
        </mxCell>
        <mxCell id="xNCUxzRzSxBadR03PHfi-125" value="" style="endArrow=none;html=1;rounded=0;exitX=0.5;exitY=0;exitDx=0;exitDy=0;entryX=0.5;entryY=1;entryDx=0;entryDy=0;" edge="1" parent="1" source="xNCUxzRzSxBadR03PHfi-111" target="xNCUxzRzSxBadR03PHfi-124">
          <mxGeometry width="50" height="50" relative="1" as="geometry">
            <mxPoint x="-117" y="740" as="sourcePoint" />
            <mxPoint x="-67" y="690" as="targetPoint" />
          </mxGeometry>
        </mxCell>
        <mxCell id="xNCUxzRzSxBadR03PHfi-126" value="E-mail" style="ellipse;whiteSpace=wrap;html=1;" vertex="1" parent="1">
          <mxGeometry x="284.5" y="288" width="100" height="30" as="geometry" />
        </mxCell>
        <mxCell id="xNCUxzRzSxBadR03PHfi-127" value="Номер телефона" style="ellipse;whiteSpace=wrap;html=1;" vertex="1" parent="1">
          <mxGeometry x="300.5" y="329" width="121" height="39" as="geometry" />
        </mxCell>
        <mxCell id="xNCUxzRzSxBadR03PHfi-128" value="" style="endArrow=none;html=1;rounded=0;entryX=0;entryY=0.5;entryDx=0;entryDy=0;exitX=0.5;exitY=0;exitDx=0;exitDy=0;" edge="1" parent="1" source="xNCUxzRzSxBadR03PHfi-93" target="xNCUxzRzSxBadR03PHfi-126">
          <mxGeometry width="50" height="50" relative="1" as="geometry">
            <mxPoint x="230" y="370" as="sourcePoint" />
            <mxPoint x="284" y="290" as="targetPoint" />
          </mxGeometry>
        </mxCell>
        <mxCell id="xNCUxzRzSxBadR03PHfi-129" value="" style="endArrow=none;html=1;rounded=0;exitX=0.5;exitY=0;exitDx=0;exitDy=0;entryX=0;entryY=0.5;entryDx=0;entryDy=0;" edge="1" parent="1" source="xNCUxzRzSxBadR03PHfi-93" target="xNCUxzRzSxBadR03PHfi-127">
          <mxGeometry width="50" height="50" relative="1" as="geometry">
            <mxPoint x="315" y="441" as="sourcePoint" />
            <mxPoint x="364.5" y="391" as="targetPoint" />
          </mxGeometry>
        </mxCell>
      </root>
    </mxGraphModel>
  </diagram>
</mxfile>
